<?xml version="1.0" encoding="utf-8"?>
<!-- Generator: Adobe Illustrator 23.0.0, SVG Export Plug-In . SVG Version: 6.00 Build 0)  -->
<svg version="1.1" id="Capa_1" xmlns="http://www.w3.org/2000/svg" xmlns:xlink="http://www.w3.org/1999/xlink" x="0px" y="0px"
	 viewBox="0 0 60.8 60.8" style="enable-background:new 0 0 60.8 60.8;" xml:space="preserve">
<style type="text/css">
	.st0{fill:url(#SVGID_1_);}
	.st1{fill:url(#SVGID_2_);}
	.st2{fill:url(#SVGID_3_);}
</style>
<title>up</title>
<linearGradient id="SVGID_1_" gradientUnits="userSpaceOnUse" x1="30.415" y1="60.8" x2="30.415" y2="-6.118763e-03">
	<stop  offset="0" style="stop-color:#28A7F6"/>
	<stop  offset="1" style="stop-color:#2882F6"/>
</linearGradient>
<path class="st0" d="M51.1,40.1c0,11.4-9.3,20.7-20.7,20.7h0C19,60.8,9.7,51.5,9.7,40.1c0-2.8,0.6-5.6,1.6-8c0,0,0,0,0,0l1.1-2.3
	L25.9,2.8c0.5-1,1.3-1.8,2.3-2.3c2.5-1.2,5.5-0.2,6.7,2.3L48.5,30l0.8,1.6C50.5,34.2,51.1,37,51.1,40.1z"/>
<linearGradient id="SVGID_2_" gradientUnits="userSpaceOnUse" x1="11.895" y1="32.01" x2="11.895" y2="29.71">
	<stop  offset="0" style="stop-color:#FFB67C"/>
	<stop  offset="1" style="stop-color:#FF57A5"/>
</linearGradient>
<path class="st1" d="M11.3,32c0.3-0.8,0.7-1.6,1.1-2.3L11.3,32z"/>
<linearGradient id="SVGID_3_" gradientUnits="userSpaceOnUse" x1="48.93" y1="31.58" x2="48.93" y2="30.02">
	<stop  offset="0" style="stop-color:#FFB67C"/>
	<stop  offset="1" style="stop-color:#FF57A5"/>
</linearGradient>
<path class="st2" d="M49.3,31.6L48.5,30C48.8,30.5,49.1,31,49.3,31.6z"/>
</svg>
