<?xml version="1.0" encoding="utf-8"?>
<!-- Generator: Adobe Illustrator 23.0.0, SVG Export Plug-In . SVG Version: 6.00 Build 0)  -->
<svg version="1.1" id="Capa_1" xmlns="http://www.w3.org/2000/svg" xmlns:xlink="http://www.w3.org/1999/xlink" x="0px" y="0px"
	 viewBox="0 0 60.8 60.8" style="enable-background:new 0 0 60.8 60.8;" xml:space="preserve">
<style type="text/css">
	.st0{fill:url(#SVGID_1_);}
	.st1{fill:url(#SVGID_2_);}
	.st2{fill:url(#SVGID_3_);}
</style>
<title>up</title>
<linearGradient id="SVGID_1_" gradientUnits="userSpaceOnUse" x1="30.4" y1="60.8" x2="30.4" y2="-6.122469e-03">
	<stop  offset="0" style="stop-color:#00FFFF"/>
	<stop  offset="1" style="stop-color:#28A7F6"/>
</linearGradient>
<path class="st0" d="M51.1,40.1c0,11.4-9.3,20.7-20.7,20.7l0,0C19,60.8,9.7,51.5,9.7,40.1c0-2.8,0.6-5.6,1.6-8l0,0l1.1-2.3l13.5-27
	c0.5-1,1.3-1.8,2.3-2.3c2.5-1.2,5.5-0.2,6.7,2.3L48.5,30l0.8,1.6C50.5,34.2,51.1,37,51.1,40.1z"/>
<linearGradient id="SVGID_2_" gradientUnits="userSpaceOnUse" x1="11.85" y1="29.99" x2="11.85" y2="32.29" gradientTransform="matrix(1 0 0 -1 0 62)">
	<stop  offset="0" style="stop-color:#FFB67C"/>
	<stop  offset="1" style="stop-color:#FF57A5"/>
</linearGradient>
<path class="st1" d="M11.3,32c0.3-0.8,0.7-1.6,1.1-2.3L11.3,32z"/>
<linearGradient id="SVGID_3_" gradientUnits="userSpaceOnUse" x1="48.9" y1="30.42" x2="48.9" y2="31.98" gradientTransform="matrix(1 0 0 -1 0 62)">
	<stop  offset="0" style="stop-color:#FFB67C"/>
	<stop  offset="1" style="stop-color:#FF57A5"/>
</linearGradient>
<path class="st2" d="M49.3,31.6L48.5,30C48.8,30.5,49.1,31,49.3,31.6z"/>
</svg>
