<?xml version="1.0" encoding="utf-8"?>
<!-- Generator: Adobe Illustrator 23.0.0, SVG Export Plug-In . SVG Version: 6.00 Build 0)  -->
<svg version="1.1" id="Capa_1" xmlns="http://www.w3.org/2000/svg" xmlns:xlink="http://www.w3.org/1999/xlink" x="0px" y="0px"
	 viewBox="0 0 48 48" style="enable-background:new 0 0 48 48;" xml:space="preserve">
<style type="text/css">
	.st0{fill:#ffDA00;}
</style>
<path class="st0" d="M38.8,42H9.2C7.5,42,6,40.5,6,38.8V9.2C6,7.5,7.5,6,9.2,6h29.6C40.5,6,42,7.5,42,9.2v29.6
	C42,40.5,40.5,42,38.8,42z"/>
<path d="M22.2,22.5h3.4V35c0,0.8-0.2,1.5-0.5,2.1c-0.6,1-1.8,2.1-4.4,2.1c-3.9,0-5.2-3-5.2-3l2.7-1.7c0,0,0.7,1.7,2.4,1.7
	c1.7,0,1.6-1.3,1.6-1.3V22.5z"/>
<path d="M33.3,22.3c0,0-4.9,0-4.9,4.5c0,3.9,4.4,5.2,4.9,5.4s2.5,0.8,2.5,2.2s-1.5,1.8-2.4,1.8s-2.5-0.4-3.4-2l-2.6,1.6
	c0,0,1.4,3.4,6.2,3.4s5.5-3,5.5-4.7s-1-3.9-4.3-5.2c-1.7-0.7-3.2-1.2-3.2-2.5s1.2-1.6,1.8-1.6c0.5,0,1.6,0.5,2.1,1.5L38,25
	C38.1,25,37.2,22.3,33.3,22.3z"/>
</svg>
