<?xml version="1.0" encoding="utf-8"?>
<!-- Generator: Adobe Illustrator 23.0.0, SVG Export Plug-In . SVG Version: 6.00 Build 0)  -->
<svg version="1.1" id="Capa_1" xmlns="http://www.w3.org/2000/svg" xmlns:xlink="http://www.w3.org/1999/xlink" x="0px" y="0px"
	 viewBox="0 0 85 85" style="enable-background:new 0 0 85 85;" xml:space="preserve">
<path d="M80.9,74.7c-5.5-5.5-11.1-11-16.6-16.5c-1.3-1.3-2.5-2.7-5-2c11.1-13.3,10.2-31.8-1.5-43.7c-11.1-11.2-29.3-12.6-42-3
	C2.8,19.4-0.7,37,7.2,50.9c4.1,7.2,10.1,12.2,18,14.7c11.3,3.6,21.6,1.2,31.1-6.3c-0.8,2.6,0.6,3.8,2,5.2c2.7,2.6,5.3,5.3,8,8
	c2.9,2.9,5.8,5.8,8.7,8.6c1.1,1.1,2.2,1.1,3.3,0c0.9-0.8,1.7-1.7,2.6-2.5C82.4,77.1,82.4,76.3,80.9,74.7z M35.1,59.7
	C21.3,59.6,10.4,48.5,10.5,35c0-13.5,10.9-24.6,24.6-24.5c13.6,0,24.6,11,24.5,24.7C59.7,48.7,48.6,59.8,35.1,59.7z"/>
</svg>
