<?xml version="1.0" encoding="utf-8"?>
<!-- Generator: Adobe Illustrator 23.0.0, SVG Export Plug-In . SVG Version: 6.00 Build 0)  -->
<svg version="1.1" xmlns="http://www.w3.org/2000/svg" xmlns:xlink="http://www.w3.org/1999/xlink" x="0px" y="0px"
	 viewBox="0 0 85 85" style="enable-background:new 0 0 85 85;" xml:space="preserve">
<style type="text/css">
	.st0{display:none;}
	.st1{display:inline;}
</style>
<g id="Capa_1" class="st0">
	<path class="st1" d="M80.9,74.7c-5.5-5.5-11.1-11-16.6-16.5c-1.3-1.3-2.5-2.7-5-2c11.1-13.3,10.2-31.8-1.5-43.7
		c-11.1-11.2-29.3-12.6-42-3C2.8,19.4-0.7,37,7.2,50.9c4.1,7.2,10.1,12.2,18,14.7c11.3,3.6,21.6,1.2,31.1-6.3
		c-0.8,2.6,0.6,3.8,2,5.2c2.7,2.6,5.3,5.3,8,8c2.9,2.9,5.8,5.8,8.7,8.6c1.1,1.1,2.2,1.1,3.3,0c0.9-0.8,1.7-1.7,2.6-2.5
		C82.4,77.1,82.4,76.3,80.9,74.7z M35.1,59.7C21.3,59.6,10.4,48.5,10.5,35c0-13.5,10.9-24.6,24.6-24.5c13.6,0,24.6,11,24.5,24.7
		C59.7,48.7,48.6,59.8,35.1,59.7z"/>
</g>
<g id="Capa_2">
	<path d="M81.4,75.2L60.6,54.5c9.7-13.1,8.4-30.6-2.8-42c-11.1-11.2-29.3-12.6-42-3c-13,9.9-16.5,27.5-8.6,41.4
		c4.1,7.2,10.1,12.2,18,14.7c10.5,3.4,20.2,1.5,29.2-4.9l20.7,20.7c0.8,0.8,2,0.8,2.8,0l3.4-3.4C82.1,77.2,82.1,76,81.4,75.2z
		 M35.1,59.6c-13.8-0.1-24.7-11.2-24.6-24.7c0-13.5,10.9-24.6,24.6-24.5c13.6,0,24.6,11,24.5,24.7C59.7,48.6,48.6,59.7,35.1,59.6z"
		/>
</g>
</svg>
